# xmcd
#
# Track frame offsets:
#	150
#	20430
#	36907
#	55620
#	74032
#	92120
#	105125
#	121980
#	140797
#	157520
#	173590
#	192560
#	213112
#	230912
#	244747
#	262087
#
# Disc length: 3735 seconds
# Revision: 6
# Processed by: cddbd v1.5.2PL0 Copyright (c) Steve Scherf et al.
# Submitted via: dBpowerAMP V12.0
#
DISCID=dd0e9510
DTITLE=蔡楓華 - 蔡楓華_白金珍藏版
DYEAR=1983
DGENRE=Oldies
TTITLE0=叛逆
TTITLE1=誘惑
TTITLE2=絕對空虛
TTITLE3=愛不是遊戲
TTITLE4=高温境界
TTITLE5=愛的火花
TTITLE6=何必曾相識
TTITLE7=突爆的光芒
TTITLE8=一水隔天涯
TTITLE9=遠飛的你
TTITLE10=破碎
TTITLE11=風中追風
TTITLE12=月蝕
TTITLE13=倩影
TTITLE14=十年
TTITLE15=人之初
EXTD=
EXTT0=
EXTT1=
EXTT2=
EXTT3=
EXTT4=
EXTT5=
EXTT6=
EXTT7=
EXTT8=
EXTT9=
EXTT10=
EXTT11=
EXTT12=
EXTT13=
EXTT14=
EXTT15=
PLAYORDER=
